<svg width="100%" height="100%" viewBox="0 0 977 445"  fill="none" xmlns="http://www.w3.org/2000/svg">
<rect x="329" y="234" width="36" height="61" fill="#5C5858"/>
<rect x="330.5" y="238.5" width="14" height="4" fill="#5C5858" stroke="#D9D9D9"/>
<rect x="330.5" y="283.5" width="14" height="4" fill="#5C5858" stroke="#D9D9D9"/>
<rect x="330.5" y="278.5" width="14" height="4" fill="#5C5858" stroke="#D9D9D9"/>
<rect x="330.5" y="273.5" width="14" height="4" fill="#5C5858" stroke="#D9D9D9"/>
<rect x="330.5" y="268.5" width="14" height="4" fill="#5C5858" stroke="#D9D9D9"/>
<rect x="330.5" y="263.5" width="14" height="4" fill="#5C5858" stroke="#D9D9D9"/>
<rect x="330.5" y="258.5" width="14" height="4" fill="#5C5858" stroke="#D9D9D9"/>
<rect x="330.5" y="253.5" width="14" height="4" fill="#5C5858" stroke="#D9D9D9"/>
<rect x="330.5" y="248.5" width="14" height="4" fill="#5C5858" stroke="#D9D9D9"/>
<rect x="330.5" y="243.5" width="14" height="4" fill="#5C5858" stroke="#D9D9D9"/>
<rect x="349.5" y="238.5" width="14" height="4" fill="#5C5858" stroke="#D9D9D9"/>
<rect x="349.5" y="283.5" width="14" height="4" fill="#5C5858" stroke="#D9D9D9"/>
<rect x="349.5" y="278.5" width="14" height="4" fill="#5C5858" stroke="#D9D9D9"/>
<rect x="349.5" y="273.5" width="14" height="4" fill="#5C5858" stroke="#D9D9D9"/>
<rect x="349.5" y="268.5" width="14" height="4" fill="#5C5858" stroke="#D9D9D9"/>
<rect x="349.5" y="263.5" width="14" height="4" fill="#5C5858" stroke="#D9D9D9"/>
<rect x="349.5" y="258.5" width="14" height="4" fill="#5C5858" stroke="#D9D9D9"/>
<rect x="349.5" y="253.5" width="14" height="4" fill="#5C5858" stroke="#D9D9D9"/>
<rect x="349.5" y="248.5" width="14" height="4" fill="#5C5858" stroke="#D9D9D9"/>
<rect x="349.5" y="243.5" width="14" height="4" fill="#5C5858" stroke="#D9D9D9"/>
<rect x="404" y="215" width="8" height="4" fill="#5C5858"/>
<rect x="334" y="148" width="106" height="67" fill="#9747FF"/>
<rect x="111" y="219" width="861" height="15" fill="#5C5858"/>
<rect x="445" y="148" width="105" height="67" fill="#9747FF"/>
<rect x="515" y="215" width="8" height="4" fill="#5C5858"/>
<rect x="625" y="215" width="8" height="4" fill="#5C5858"/>
<rect x="555" y="148" width="106" height="67" fill="#9747FF"/>
<rect x="736" y="215" width="8" height="4" fill="#5C5858"/>
<rect x="665" y="148" width="98" height="67" fill="#9747FF"/>
<rect x="767" y="148" width="139" height="67" fill="#9747FF"/>
<rect x="873" y="215" width="8" height="4" fill="#5C5858"/>
<rect x="922" y="215" width="8" height="4" fill="#5C5858"/>
<rect x="910" y="148" width="62" height="67" fill="#9747FF"/>
<rect x="669" y="234" width="8" height="5" fill="#5C5858"/>
<rect x="880" y="234" width="8" height="5" fill="#5C5858"/>
<rect x="828" y="234" width="8" height="5" fill="#5C5858"/>
<rect x="933" y="234" width="8" height="5" fill="#5C5858"/>
<rect x="518" y="234" width="8" height="5" fill="#5C5858"/>
<rect x="370" y="239" width="156" height="48" fill="#00D1FF"/>
<rect x="531" y="239" width="158" height="48" fill="#9747FF"/>
<rect x="818" y="239" width="42" height="48" fill="#9747FF"/>
<rect x="864" y="239" width="41" height="48" fill="#9747FF"/>
<rect x="910" y="239" width="62" height="48" fill="#FF0000"/>
<rect x="794" y="234" width="19" height="209" fill="#5C5858"/>
<rect x="719" y="292" width="70" height="64" fill="#9747FF"/>
<rect x="789" y="301" width="5" height="8" fill="#5C5858"/>
<rect x="719" y="361" width="70" height="34" fill="#9747FF"/>
<rect x="789" y="376" width="5" height="8" fill="#5C5858"/>
<rect x="719" y="400" width="70" height="38" fill="#9747FF"/>
<rect x="789" y="419" width="5" height="8" fill="#5C5858"/>
<rect x="818" y="400" width="87" height="38" fill="#9747FF"/>
<rect x="813" y="414" width="5" height="8" fill="#5C5858"/>
<rect x="818" y="360" width="87" height="35" fill="#9747FF"/>
<rect x="813" y="382" width="5" height="8" fill="#5C5858"/>
<rect x="813" y="339" width="5" height="8" fill="#5C5858"/>
<rect x="818" y="292" width="87" height="63" fill="#9747FF"/>
<rect x="289" y="168" width="40" height="47" fill="#9747FF"/>
<rect x="311" y="215" width="8" height="4" fill="#5C5858"/>
<rect x="242" y="168" width="42" height="47" fill="#9747FF"/>
<rect x="259" y="215" width="8" height="4" fill="#5C5858"/>
<rect x="205" y="239" width="119" height="48" fill="#9747FF"/>
<rect x="233" y="234" width="8" height="5" fill="#5C5858"/>
<rect x="111" y="181" width="127" height="33" fill="#9747FF"/>
<rect x="206" y="168" width="32" height="13" fill="#9747FF"/>
<rect x="206" y="214" width="32" height="5" fill="#9747FF"/>
<rect x="116" y="85" width="86" height="91" fill="#9747FF"/>
<rect x="111" y="147" width="5" height="8" fill="#5C5858"/>
<rect x="96" width="15" height="445" fill="#5C5858"/>
<rect x="111" y="59" width="5" height="8" fill="#5C5858"/>
<rect x="116" y="5" width="86" height="75" fill="#9747FF"/>
<rect x="116" y="239" width="84" height="103" fill="#9747FF"/>
<rect x="5" y="5" width="86" height="75" fill="#9747FF"/>
<rect x="5" y="85" width="86" height="79" fill="#9747FF"/>
<rect x="5" y="169" width="86" height="79" fill="#9747FF"/>
<rect x="5" y="253" width="86" height="79" fill="#9747FF"/>
<rect x="5" y="337" width="86" height="103" fill="#9747FF"/>
<rect x="91" y="65" width="5" height="8" fill="#5C5858"/>
<rect x="91" y="156" width="5" height="8" fill="#5C5858"/>
<rect x="91" y="169" width="5" height="8" fill="#5C5858"/>
<rect x="91" y="253" width="5" height="8" fill="#5C5858"/>
<rect x="91" y="420" width="5" height="8" fill="#5C5858"/>
<rect x="111" y="420" width="5" height="8" fill="#5C5858"/>
<rect x="116" y="347" width="84" height="93" fill="#9747FF"/>
<rect x="111" y="286" width="5" height="8" fill="#5C5858"/>
<rect x="694" y="239" width="30" height="48" fill="#5C5858"/>
<rect x="694" y="234" width="8" height="5" fill="#5C5858"/>
<rect x="724" y="252" width="45" height="22" fill="#9747FF"/>
<rect x="769" y="239" width="20" height="48" fill="#5C5858"/>
<rect x="724.5" y="239.5" width="4" height="12" fill="#5C5858" stroke="#D9D9D9"/>
<rect x="729.5" y="239.5" width="4" height="12" fill="#5C5858" stroke="#D9D9D9"/>
<rect x="734.5" y="239.5" width="4" height="12" fill="#5C5858" stroke="#D9D9D9"/>
<rect x="739.5" y="239.5" width="4" height="12" fill="#5C5858" stroke="#D9D9D9"/>
<rect x="744.5" y="239.5" width="4" height="12" fill="#5C5858" stroke="#D9D9D9"/>
<rect x="749.5" y="239.5" width="4" height="12" fill="#5C5858" stroke="#D9D9D9"/>
<rect x="754.5" y="239.5" width="4" height="12" fill="#5C5858" stroke="#D9D9D9"/>
<rect x="759.5" y="239.5" width="4" height="12" fill="#5C5858" stroke="#D9D9D9"/>
<rect x="764.5" y="239.5" width="4" height="12" fill="#5C5858" stroke="#D9D9D9"/>
<rect x="724.5" y="274.5" width="4" height="12" fill="#5C5858" stroke="#D9D9D9"/>
<rect x="729.5" y="274.5" width="4" height="12" fill="#5C5858" stroke="#D9D9D9"/>
<rect x="734.5" y="274.5" width="4" height="12" fill="#5C5858" stroke="#D9D9D9"/>
<rect x="739.5" y="274.5" width="4" height="12" fill="#5C5858" stroke="#D9D9D9"/>
<rect x="744.5" y="274.5" width="4" height="12" fill="#5C5858" stroke="#D9D9D9"/>
<rect x="749.5" y="274.5" width="4" height="12" fill="#5C5858" stroke="#D9D9D9"/>
<rect x="754.5" y="274.5" width="4" height="12" fill="#5C5858" stroke="#D9D9D9"/>
<rect x="759.5" y="274.5" width="4" height="12" fill="#5C5858" stroke="#D9D9D9"/>
<rect x="764.5" y="274.5" width="4" height="12" fill="#5C5858" stroke="#D9D9D9"/>
<rect x="91" width="116" height="5" fill="#D9D9D9"/>
<rect width="91" height="5" fill="#D9D9D9"/>
<rect width="91" height="5" fill="#D9D9D9"/>
<rect x="91" y="5" width="5" height="60" fill="#D9D9D9"/>
<rect x="91" y="5" width="5" height="60" fill="#D9D9D9"/>
<rect y="5" width="5" height="440" fill="#D9D9D9"/>
<rect y="5" width="5" height="440" fill="#D9D9D9"/>
<rect x="5" y="440" width="86" height="5" fill="#D9D9D9"/>
<rect x="5" y="440" width="86" height="5" fill="#D9D9D9"/>
<rect x="202" y="5" width="5" height="163" fill="#D9D9D9"/>
<rect x="111" y="5" width="5" height="54" fill="#D9D9D9"/>
<rect x="116" y="80" width="86" height="5" fill="#D9D9D9"/>
<rect x="111" y="67" width="5" height="80" fill="#D9D9D9"/>
<rect x="111" y="155" width="5" height="26" fill="#D9D9D9"/>
<rect x="116" y="176" width="90" height="5" fill="#D9D9D9"/>
<rect x="202" y="168" width="4" height="8" fill="#D9D9D9"/>
<rect x="207" y="163" width="122" height="5" fill="#D9D9D9"/>
<rect x="238" y="168" width="4" height="51" fill="#D9D9D9"/>
<rect x="242" y="215" width="17" height="4" fill="#D9D9D9"/>
<rect x="284" y="168" width="5" height="47" fill="#D9D9D9"/>
<rect x="267" y="215" width="44" height="4" fill="#D9D9D9"/>
<rect x="329" y="143" width="5" height="72" fill="#D9D9D9"/>
<rect x="91" y="428" width="5" height="12" fill="#D9D9D9"/>
<rect x="319" y="215" width="85" height="4" fill="#D9D9D9"/>
<rect x="91" y="261" width="5" height="159" fill="#D9D9D9"/>
<rect x="5" y="332" width="86" height="5" fill="#D9D9D9"/>
<rect x="5" y="248" width="91" height="5" fill="#D9D9D9"/>
<rect x="91" y="177" width="5" height="71" fill="#D9D9D9"/>
<rect x="5" y="164" width="91" height="5" fill="#D9D9D9"/>
<rect x="91" y="73" width="5" height="83" fill="#D9D9D9"/>
<rect x="111" y="214" width="95" height="5" fill="#D9D9D9"/>
<rect x="5" y="80" width="86" height="5" fill="#D9D9D9"/>
<rect x="111" y="234" width="5" height="52" fill="#D9D9D9"/>
<rect x="116" y="234" width="117" height="5" fill="#D9D9D9"/>
<rect x="111" y="294" width="5" height="126" fill="#D9D9D9"/>
<rect x="200" y="239" width="5" height="206" fill="#D9D9D9"/>
<rect x="116" y="342" width="84" height="5" fill="#D9D9D9"/>
<rect x="205" y="287" width="119" height="5" fill="#D9D9D9"/>
<rect x="91" y="440" width="109" height="5" fill="#D9D9D9"/>
<rect x="241" y="234" width="88" height="5" fill="#D9D9D9"/>
<rect x="111" y="428" width="5" height="12" fill="#D9D9D9"/>
<rect x="324" y="239" width="5" height="61" fill="#D9D9D9"/>
<rect x="334" y="143" width="643" height="5" fill="#D9D9D9"/>
<rect x="329" y="295" width="41" height="5" fill="#D9D9D9"/>
<rect x="972" y="148" width="5" height="144" fill="#D9D9D9"/>
<rect x="365" y="239" width="5" height="56" fill="#D9D9D9"/>
<rect x="365" y="234" width="153" height="5" fill="#D9D9D9"/>
<rect x="941" y="234" width="31" height="5" fill="#D9D9D9"/>
<rect x="370" y="287" width="419" height="5" fill="#D9D9D9"/>
<rect x="930" y="215" width="42" height="4" fill="#D9D9D9"/>
<rect x="881" y="215" width="41" height="4" fill="#D9D9D9"/>
<rect x="906" y="148" width="4" height="67" fill="#D9D9D9"/>
<rect x="689" y="234" width="5" height="53" fill="#D9D9D9"/>
<rect x="888" y="234" width="45" height="5" fill="#D9D9D9"/>
<rect x="677" y="234" width="12" height="5" fill="#D9D9D9"/>
<rect x="905" y="239" width="5" height="204" fill="#D9D9D9"/>
<rect x="526" y="234" width="143" height="5" fill="#D9D9D9"/>
<rect x="526" y="239" width="5" height="48" fill="#D9D9D9"/>
<rect x="794" y="438" width="111" height="5" fill="#D9D9D9"/>
<rect x="813" y="422" width="5" height="16" fill="#D9D9D9"/>
<rect x="440" y="148" width="5" height="67" fill="#D9D9D9"/>
<rect x="813" y="390" width="5" height="24" fill="#D9D9D9"/>
<rect x="818" y="395" width="87" height="5" fill="#D9D9D9"/>
<rect x="412" y="215" width="103" height="4" fill="#D9D9D9"/>
<rect x="813" y="355" width="92" height="5" fill="#D9D9D9"/>
<rect x="813" y="347" width="5" height="8" fill="#D9D9D9"/>
<rect x="550" y="148" width="5" height="67" fill="#D9D9D9"/>
<rect x="813" y="360" width="5" height="22" fill="#D9D9D9"/>
<rect x="523" y="215" width="102" height="4" fill="#D9D9D9"/>
<rect x="813" y="234" width="5" height="105" fill="#D9D9D9"/>
<rect x="633" y="215" width="103" height="4" fill="#D9D9D9"/>
<rect x="818" y="234" width="10" height="5" fill="#D9D9D9"/>
<rect x="661" y="148" width="4" height="67" fill="#D9D9D9"/>
<rect x="818" y="287" width="87" height="5" fill="#D9D9D9"/>
<rect x="744" y="215" width="129" height="4" fill="#D9D9D9"/>
<rect x="763" y="148" width="4" height="67" fill="#D9D9D9"/>
<rect x="910" y="287" width="62" height="5" fill="#D9D9D9"/>
<rect x="860" y="239" width="4" height="48" fill="#D9D9D9"/>
<rect x="836" y="234" width="44" height="5" fill="#D9D9D9"/>
<rect x="789" y="309" width="5" height="67" fill="#D9D9D9"/>
<rect x="719" y="356" width="70" height="5" fill="#D9D9D9"/>
<rect x="789" y="384" width="5" height="35" fill="#D9D9D9"/>
<rect x="719" y="395" width="70" height="5" fill="#D9D9D9"/>
<rect x="789" y="234" width="5" height="67" fill="#D9D9D9"/>
<rect x="789" y="427" width="5" height="16" fill="#D9D9D9"/>
<rect x="714" y="438" width="75" height="5" fill="#D9D9D9"/>
<rect x="702" y="234" width="87" height="5" fill="#D9D9D9"/>
<rect x="714" y="292" width="5" height="146" fill="#D9D9D9"/>
<path d="M32.9034 47V46.233L35.7841 43.0795C36.1222 42.7102 36.4006 42.3892 36.6193 42.1165C36.8381 41.8409 37 41.5824 37.1051 41.3409C37.2131 41.0966 37.267 40.8409 37.267 40.5739C37.267 40.267 37.1932 40.0014 37.0455 39.777C36.9006 39.5526 36.7017 39.3793 36.4489 39.2571C36.196 39.1349 35.9119 39.0739 35.5966 39.0739C35.2614 39.0739 34.9688 39.1435 34.7188 39.2827C34.4716 39.419 34.2798 39.6108 34.1435 39.858C34.0099 40.1051 33.9432 40.3949 33.9432 40.7273H32.9375C32.9375 40.2159 33.0554 39.767 33.2912 39.3807C33.527 38.9943 33.848 38.6932 34.2543 38.4773C34.6634 38.2614 35.1222 38.1534 35.6307 38.1534C36.142 38.1534 36.5952 38.2614 36.9901 38.4773C37.3849 38.6932 37.6946 38.9844 37.919 39.3509C38.1435 39.7173 38.2557 40.125 38.2557 40.5739C38.2557 40.8949 38.1974 41.2088 38.081 41.5156C37.9673 41.8196 37.7685 42.1591 37.4844 42.5341C37.2031 42.9062 36.8125 43.3608 36.3125 43.8977L34.3523 45.9943V46.0625H38.4091V47H32.9034ZM40.169 47V46.233L43.0497 43.0795C43.3878 42.7102 43.6662 42.3892 43.8849 42.1165C44.1037 41.8409 44.2656 41.5824 44.3707 41.3409C44.4787 41.0966 44.5327 40.8409 44.5327 40.5739C44.5327 40.267 44.4588 40.0014 44.3111 39.777C44.1662 39.5526 43.9673 39.3793 43.7145 39.2571C43.4616 39.1349 43.1776 39.0739 42.8622 39.0739C42.527 39.0739 42.2344 39.1435 41.9844 39.2827C41.7372 39.419 41.5455 39.6108 41.4091 39.858C41.2756 40.1051 41.2088 40.3949 41.2088 40.7273H40.2031C40.2031 40.2159 40.321 39.767 40.5568 39.3807C40.7926 38.9943 41.1136 38.6932 41.5199 38.4773C41.929 38.2614 42.3878 38.1534 42.8963 38.1534C43.4077 38.1534 43.8608 38.2614 44.2557 38.4773C44.6506 38.6932 44.9602 38.9844 45.1847 39.3509C45.4091 39.7173 45.5213 40.125 45.5213 40.5739C45.5213 40.8949 45.4631 41.2088 45.3466 41.5156C45.233 41.8196 45.0341 42.1591 44.75 42.5341C44.4688 42.9062 44.0781 43.3608 43.5781 43.8977L41.6179 45.9943V46.0625H45.6747V47H40.169ZM47.4347 47V46.233L50.3153 43.0795C50.6534 42.7102 50.9318 42.3892 51.1506 42.1165C51.3693 41.8409 51.5313 41.5824 51.6364 41.3409C51.7443 41.0966 51.7983 40.8409 51.7983 40.5739C51.7983 40.267 51.7244 40.0014 51.5767 39.777C51.4318 39.5526 51.233 39.3793 50.9801 39.2571C50.7273 39.1349 50.4432 39.0739 50.1278 39.0739C49.7926 39.0739 49.5 39.1435 49.25 39.2827C49.0028 39.419 48.8111 39.6108 48.6747 39.858C48.5412 40.1051 48.4744 40.3949 48.4744 40.7273H47.4688C47.4688 40.2159 47.5866 39.767 47.8224 39.3807C48.0582 38.9943 48.3793 38.6932 48.7855 38.4773C49.1946 38.2614 49.6534 38.1534 50.1619 38.1534C50.6733 38.1534 51.1264 38.2614 51.5213 38.4773C51.9162 38.6932 52.2259 38.9844 52.4503 39.3509C52.6747 39.7173 52.7869 40.125 52.7869 40.5739C52.7869 40.8949 52.7287 41.2088 52.6122 41.5156C52.4986 41.8196 52.2997 42.1591 52.0156 42.5341C51.7344 42.9062 51.3438 43.3608 50.8438 43.8977L48.8835 45.9943V46.0625H52.9403V47H47.4347Z" fill="white"/>
<path d="M148.903 47V46.233L151.784 43.0795C152.122 42.7102 152.401 42.3892 152.619 42.1165C152.838 41.8409 153 41.5824 153.105 41.3409C153.213 41.0966 153.267 40.8409 153.267 40.5739C153.267 40.267 153.193 40.0014 153.045 39.777C152.901 39.5526 152.702 39.3793 152.449 39.2571C152.196 39.1349 151.912 39.0739 151.597 39.0739C151.261 39.0739 150.969 39.1435 150.719 39.2827C150.472 39.419 150.28 39.6108 150.143 39.858C150.01 40.1051 149.943 40.3949 149.943 40.7273H148.938C148.938 40.2159 149.055 39.767 149.291 39.3807C149.527 38.9943 149.848 38.6932 150.254 38.4773C150.663 38.2614 151.122 38.1534 151.631 38.1534C152.142 38.1534 152.595 38.2614 152.99 38.4773C153.385 38.6932 153.695 38.9844 153.919 39.3509C154.143 39.7173 154.256 40.125 154.256 40.5739C154.256 40.8949 154.197 41.2088 154.081 41.5156C153.967 41.8196 153.768 42.1591 153.484 42.5341C153.203 42.9062 152.812 43.3608 152.312 43.8977L150.352 45.9943V46.0625H154.409V47H148.903ZM156.169 47V46.233L159.05 43.0795C159.388 42.7102 159.666 42.3892 159.885 42.1165C160.104 41.8409 160.266 41.5824 160.371 41.3409C160.479 41.0966 160.533 40.8409 160.533 40.5739C160.533 40.267 160.459 40.0014 160.311 39.777C160.166 39.5526 159.967 39.3793 159.714 39.2571C159.462 39.1349 159.178 39.0739 158.862 39.0739C158.527 39.0739 158.234 39.1435 157.984 39.2827C157.737 39.419 157.545 39.6108 157.409 39.858C157.276 40.1051 157.209 40.3949 157.209 40.7273H156.203C156.203 40.2159 156.321 39.767 156.557 39.3807C156.793 38.9943 157.114 38.6932 157.52 38.4773C157.929 38.2614 158.388 38.1534 158.896 38.1534C159.408 38.1534 159.861 38.2614 160.256 38.4773C160.651 38.6932 160.96 38.9844 161.185 39.3509C161.409 39.7173 161.521 40.125 161.521 40.5739C161.521 40.8949 161.463 41.2088 161.347 41.5156C161.233 41.8196 161.034 42.1591 160.75 42.5341C160.469 42.9062 160.078 43.3608 159.578 43.8977L157.618 45.9943V46.0625H161.675V47H156.169ZM166.384 47.1193C165.821 47.1193 165.32 47.0227 164.879 46.8295C164.442 46.6364 164.094 46.3679 163.835 46.0241C163.58 45.6776 163.44 45.2756 163.418 44.8182H164.491C164.514 45.0994 164.611 45.3423 164.781 45.5469C164.952 45.7486 165.175 45.9048 165.45 46.0156C165.726 46.1264 166.031 46.1818 166.366 46.1818C166.741 46.1818 167.074 46.1165 167.364 45.9858C167.653 45.8551 167.881 45.6733 168.045 45.4403C168.21 45.2074 168.293 44.9375 168.293 44.6307C168.293 44.3097 168.213 44.027 168.054 43.7827C167.895 43.5355 167.662 43.3423 167.355 43.2031C167.048 43.0639 166.673 42.9943 166.23 42.9943H165.531V42.0568H166.23C166.577 42.0568 166.881 41.9943 167.142 41.8693C167.406 41.7443 167.612 41.5682 167.76 41.3409C167.911 41.1136 167.986 40.8466 167.986 40.5398C167.986 40.2443 167.92 39.9872 167.79 39.7685C167.659 39.5497 167.474 39.3793 167.236 39.2571C167 39.1349 166.722 39.0739 166.401 39.0739C166.099 39.0739 165.815 39.1293 165.548 39.2401C165.284 39.348 165.068 39.5057 164.901 39.7131C164.733 39.9176 164.642 40.1648 164.628 40.4545H163.605C163.622 39.9972 163.76 39.5966 164.018 39.2528C164.277 38.9062 164.615 38.6364 165.033 38.4432C165.453 38.25 165.915 38.1534 166.418 38.1534C166.957 38.1534 167.42 38.2628 167.807 38.4815C168.193 38.6974 168.49 38.983 168.697 39.3381C168.905 39.6932 169.009 40.0767 169.009 40.4886C169.009 40.9801 168.879 41.3991 168.621 41.7457C168.365 42.0923 168.017 42.3324 167.577 42.4659V42.5341C168.128 42.625 168.558 42.8594 168.868 43.2372C169.178 43.6122 169.332 44.0767 169.332 44.6307C169.332 45.1051 169.203 45.5312 168.945 45.9091C168.689 46.2841 168.339 46.5795 167.896 46.7955C167.453 47.0114 166.949 47.1193 166.384 47.1193Z" fill="white"/>
<path d="M32.9034 130V129.233L35.7841 126.08C36.1222 125.71 36.4006 125.389 36.6193 125.116C36.8381 124.841 37 124.582 37.1051 124.341C37.2131 124.097 37.267 123.841 37.267 123.574C37.267 123.267 37.1932 123.001 37.0455 122.777C36.9006 122.553 36.7017 122.379 36.4489 122.257C36.196 122.135 35.9119 122.074 35.5966 122.074C35.2614 122.074 34.9688 122.143 34.7188 122.283C34.4716 122.419 34.2798 122.611 34.1435 122.858C34.0099 123.105 33.9432 123.395 33.9432 123.727H32.9375C32.9375 123.216 33.0554 122.767 33.2912 122.381C33.527 121.994 33.848 121.693 34.2543 121.477C34.6634 121.261 35.1222 121.153 35.6307 121.153C36.142 121.153 36.5952 121.261 36.9901 121.477C37.3849 121.693 37.6946 121.984 37.919 122.351C38.1435 122.717 38.2557 123.125 38.2557 123.574C38.2557 123.895 38.1974 124.209 38.081 124.516C37.9673 124.82 37.7685 125.159 37.4844 125.534C37.2031 125.906 36.8125 126.361 36.3125 126.898L34.3523 128.994V129.062H38.4091V130H32.9034ZM40.169 130V129.233L43.0497 126.08C43.3878 125.71 43.6662 125.389 43.8849 125.116C44.1037 124.841 44.2656 124.582 44.3707 124.341C44.4787 124.097 44.5327 123.841 44.5327 123.574C44.5327 123.267 44.4588 123.001 44.3111 122.777C44.1662 122.553 43.9673 122.379 43.7145 122.257C43.4616 122.135 43.1776 122.074 42.8622 122.074C42.527 122.074 42.2344 122.143 41.9844 122.283C41.7372 122.419 41.5455 122.611 41.4091 122.858C41.2756 123.105 41.2088 123.395 41.2088 123.727H40.2031C40.2031 123.216 40.321 122.767 40.5568 122.381C40.7926 121.994 41.1136 121.693 41.5199 121.477C41.929 121.261 42.3878 121.153 42.8963 121.153C43.4077 121.153 43.8608 121.261 44.2557 121.477C44.6506 121.693 44.9602 121.984 45.1847 122.351C45.4091 122.717 45.5213 123.125 45.5213 123.574C45.5213 123.895 45.4631 124.209 45.3466 124.516C45.233 124.82 45.0341 125.159 44.75 125.534C44.4688 125.906 44.0781 126.361 43.5781 126.898L41.6179 128.994V129.062H45.6747V130H40.169ZM50.5028 121.273V130H49.446V122.381H49.3949L47.2642 123.795V122.722L49.446 121.273H50.5028Z" fill="white"/>
<path d="M32.9034 211V210.233L35.7841 207.08C36.1222 206.71 36.4006 206.389 36.6193 206.116C36.8381 205.841 37 205.582 37.1051 205.341C37.2131 205.097 37.267 204.841 37.267 204.574C37.267 204.267 37.1932 204.001 37.0455 203.777C36.9006 203.553 36.7017 203.379 36.4489 203.257C36.196 203.135 35.9119 203.074 35.5966 203.074C35.2614 203.074 34.9688 203.143 34.7188 203.283C34.4716 203.419 34.2798 203.611 34.1435 203.858C34.0099 204.105 33.9432 204.395 33.9432 204.727H32.9375C32.9375 204.216 33.0554 203.767 33.2912 203.381C33.527 202.994 33.848 202.693 34.2543 202.477C34.6634 202.261 35.1222 202.153 35.6307 202.153C36.142 202.153 36.5952 202.261 36.9901 202.477C37.3849 202.693 37.6946 202.984 37.919 203.351C38.1435 203.717 38.2557 204.125 38.2557 204.574C38.2557 204.895 38.1974 205.209 38.081 205.516C37.9673 205.82 37.7685 206.159 37.4844 206.534C37.2031 206.906 36.8125 207.361 36.3125 207.898L34.3523 209.994V210.062H38.4091V211H32.9034ZM40.169 211V210.233L43.0497 207.08C43.3878 206.71 43.6662 206.389 43.8849 206.116C44.1037 205.841 44.2656 205.582 44.3707 205.341C44.4787 205.097 44.5327 204.841 44.5327 204.574C44.5327 204.267 44.4588 204.001 44.3111 203.777C44.1662 203.553 43.9673 203.379 43.7145 203.257C43.4616 203.135 43.1776 203.074 42.8622 203.074C42.527 203.074 42.2344 203.143 41.9844 203.283C41.7372 203.419 41.5455 203.611 41.4091 203.858C41.2756 204.105 41.2088 204.395 41.2088 204.727H40.2031C40.2031 204.216 40.321 203.767 40.5568 203.381C40.7926 202.994 41.1136 202.693 41.5199 202.477C41.929 202.261 42.3878 202.153 42.8963 202.153C43.4077 202.153 43.8608 202.261 44.2557 202.477C44.6506 202.693 44.9602 202.984 45.1847 203.351C45.4091 203.717 45.5213 204.125 45.5213 204.574C45.5213 204.895 45.4631 205.209 45.3466 205.516C45.233 205.82 45.0341 206.159 44.75 206.534C44.4688 206.906 44.0781 207.361 43.5781 207.898L41.6179 209.994V210.062H45.6747V211H40.169ZM50.2812 211.119C49.6392 211.119 49.0923 210.945 48.6406 210.595C48.1889 210.243 47.8438 209.733 47.6051 209.065C47.3665 208.395 47.2472 207.585 47.2472 206.636C47.2472 205.693 47.3665 204.888 47.6051 204.22C47.8466 203.55 48.1932 203.038 48.6449 202.686C49.0994 202.331 49.6449 202.153 50.2812 202.153C50.9176 202.153 51.4616 202.331 51.9134 202.686C52.3679 203.038 52.7145 203.55 52.9531 204.22C53.1946 204.888 53.3153 205.693 53.3153 206.636C53.3153 207.585 53.196 208.395 52.9574 209.065C52.7188 209.733 52.3736 210.243 51.9219 210.595C51.4702 210.945 50.9233 211.119 50.2812 211.119ZM50.2812 210.182C50.9176 210.182 51.4119 209.875 51.7642 209.261C52.1165 208.648 52.2926 207.773 52.2926 206.636C52.2926 205.881 52.2116 205.237 52.0497 204.706C51.8906 204.175 51.6605 203.77 51.3594 203.491C51.0611 203.213 50.7017 203.074 50.2812 203.074C49.6506 203.074 49.1577 203.385 48.8026 204.007C48.4474 204.626 48.2699 205.503 48.2699 206.636C48.2699 207.392 48.3494 208.034 48.5085 208.562C48.6676 209.091 48.8963 209.493 49.1946 209.768C49.4957 210.044 49.858 210.182 50.2812 210.182Z" fill="white"/>
<path d="M32.9034 296V295.233L35.7841 292.08C36.1222 291.71 36.4006 291.389 36.6193 291.116C36.8381 290.841 37 290.582 37.1051 290.341C37.2131 290.097 37.267 289.841 37.267 289.574C37.267 289.267 37.1932 289.001 37.0455 288.777C36.9006 288.553 36.7017 288.379 36.4489 288.257C36.196 288.135 35.9119 288.074 35.5966 288.074C35.2614 288.074 34.9688 288.143 34.7188 288.283C34.4716 288.419 34.2798 288.611 34.1435 288.858C34.0099 289.105 33.9432 289.395 33.9432 289.727H32.9375C32.9375 289.216 33.0554 288.767 33.2912 288.381C33.527 287.994 33.848 287.693 34.2543 287.477C34.6634 287.261 35.1222 287.153 35.6307 287.153C36.142 287.153 36.5952 287.261 36.9901 287.477C37.3849 287.693 37.6946 287.984 37.919 288.351C38.1435 288.717 38.2557 289.125 38.2557 289.574C38.2557 289.895 38.1974 290.209 38.081 290.516C37.9673 290.82 37.7685 291.159 37.4844 291.534C37.2031 291.906 36.8125 292.361 36.3125 292.898L34.3523 294.994V295.062H38.4091V296H32.9034ZM43.2372 287.273V296H42.1804V288.381H42.1293L39.9986 289.795V288.722L42.1804 287.273H43.2372ZM48.5256 287.153C48.8835 287.156 49.2415 287.224 49.5994 287.358C49.9574 287.491 50.2841 287.713 50.5795 288.023C50.875 288.33 51.1122 288.749 51.2912 289.28C51.4702 289.811 51.5597 290.477 51.5597 291.278C51.5597 292.054 51.4858 292.743 51.3381 293.345C51.1932 293.945 50.983 294.45 50.7074 294.862C50.4347 295.274 50.1023 295.587 49.7102 295.8C49.321 296.013 48.8807 296.119 48.3892 296.119C47.9006 296.119 47.4645 296.023 47.081 295.83C46.7003 295.634 46.3878 295.362 46.1435 295.016C45.902 294.666 45.7472 294.261 45.679 293.801H46.7188C46.8125 294.202 46.9986 294.533 47.277 294.794C47.5582 295.053 47.929 295.182 48.3892 295.182C49.0625 295.182 49.5938 294.888 49.983 294.3C50.375 293.712 50.571 292.881 50.571 291.807H50.5028C50.3438 292.045 50.1548 292.251 49.9361 292.425C49.7173 292.598 49.4744 292.732 49.2074 292.825C48.9403 292.919 48.6563 292.966 48.3551 292.966C47.8551 292.966 47.3963 292.842 46.9787 292.595C46.5639 292.345 46.2315 292.003 45.9815 291.568C45.7344 291.131 45.6108 290.631 45.6108 290.068C45.6108 289.534 45.7301 289.045 45.9688 288.602C46.2102 288.156 46.5483 287.801 46.983 287.537C47.4205 287.273 47.9347 287.145 48.5256 287.153ZM48.5256 288.091C48.1676 288.091 47.8452 288.18 47.5582 288.359C47.2741 288.536 47.0483 288.774 46.8807 289.075C46.7159 289.374 46.6335 289.705 46.6335 290.068C46.6335 290.432 46.7131 290.763 46.8722 291.061C47.0341 291.357 47.2543 291.592 47.5327 291.768C47.8139 291.942 48.1335 292.028 48.4915 292.028C48.7614 292.028 49.0128 291.976 49.2457 291.871C49.4787 291.763 49.6818 291.616 49.8551 291.432C50.0313 291.244 50.169 291.033 50.2685 290.797C50.3679 290.558 50.4176 290.31 50.4176 290.051C50.4176 289.71 50.3352 289.391 50.1705 289.092C50.0085 288.794 49.7841 288.553 49.4972 288.368C49.2131 288.183 48.8892 288.091 48.5256 288.091Z" fill="white"/>
<path d="M32.9034 386V385.233L35.7841 382.08C36.1222 381.71 36.4006 381.389 36.6193 381.116C36.8381 380.841 37 380.582 37.1051 380.341C37.2131 380.097 37.267 379.841 37.267 379.574C37.267 379.267 37.1932 379.001 37.0455 378.777C36.9006 378.553 36.7017 378.379 36.4489 378.257C36.196 378.135 35.9119 378.074 35.5966 378.074C35.2614 378.074 34.9688 378.143 34.7188 378.283C34.4716 378.419 34.2798 378.611 34.1435 378.858C34.0099 379.105 33.9432 379.395 33.9432 379.727H32.9375C32.9375 379.216 33.0554 378.767 33.2912 378.381C33.527 377.994 33.848 377.693 34.2543 377.477C34.6634 377.261 35.1222 377.153 35.6307 377.153C36.142 377.153 36.5952 377.261 36.9901 377.477C37.3849 377.693 37.6946 377.984 37.919 378.351C38.1435 378.717 38.2557 379.125 38.2557 379.574C38.2557 379.895 38.1974 380.209 38.081 380.516C37.9673 380.82 37.7685 381.159 37.4844 381.534C37.2031 381.906 36.8125 382.361 36.3125 382.898L34.3523 384.994V385.062H38.4091V386H32.9034ZM43.2372 377.273V386H42.1804V378.381H42.1293L39.9986 379.795V378.722L42.1804 377.273H43.2372ZM48.5426 386.119C47.9574 386.119 47.4403 386.016 46.9915 385.808C46.5455 385.598 46.1974 385.31 45.9474 384.943C45.6974 384.574 45.5739 384.153 45.5767 383.682C45.5739 383.312 45.6463 382.972 45.794 382.659C45.9418 382.344 46.1435 382.081 46.3991 381.871C46.6577 381.658 46.946 381.523 47.2642 381.466V381.415C46.8466 381.307 46.5142 381.072 46.267 380.712C46.0199 380.348 45.8977 379.935 45.9006 379.472C45.8977 379.028 46.0099 378.632 46.2372 378.283C46.4645 377.933 46.777 377.658 47.1747 377.456C47.5753 377.254 48.0313 377.153 48.5426 377.153C49.0483 377.153 49.5 377.254 49.8977 377.456C50.2955 377.658 50.608 377.933 50.8352 378.283C51.0653 378.632 51.1818 379.028 51.1847 379.472C51.1818 379.935 51.0554 380.348 50.8054 380.712C50.5582 381.072 50.2301 381.307 49.821 381.415V381.466C50.1364 381.523 50.4205 381.658 50.6733 381.871C50.9261 382.081 51.1278 382.344 51.2784 382.659C51.429 382.972 51.5057 383.312 51.5085 383.682C51.5057 384.153 51.3778 384.574 51.125 384.943C50.875 385.31 50.527 385.598 50.081 385.808C49.6378 386.016 49.125 386.119 48.5426 386.119ZM48.5426 385.182C48.9375 385.182 49.2784 385.118 49.5653 384.99C49.8523 384.862 50.0739 384.682 50.2301 384.449C50.3864 384.216 50.4659 383.943 50.4688 383.631C50.4659 383.301 50.3807 383.01 50.2131 382.757C50.0455 382.504 49.8168 382.305 49.527 382.161C49.2401 382.016 48.9119 381.943 48.5426 381.943C48.1705 381.943 47.8381 382.016 47.5455 382.161C47.2557 382.305 47.027 382.504 46.8594 382.757C46.6946 383.01 46.6136 383.301 46.6165 383.631C46.6136 383.943 46.6889 384.216 46.8423 384.449C46.9986 384.682 47.2216 384.862 47.5114 384.99C47.8011 385.118 48.1449 385.182 48.5426 385.182ZM48.5426 381.04C48.8551 381.04 49.1321 380.977 49.3736 380.852C49.6179 380.727 49.8097 380.553 49.9489 380.328C50.0881 380.104 50.1591 379.841 50.1619 379.54C50.1591 379.244 50.0895 378.987 49.9531 378.768C49.8168 378.547 49.6278 378.376 49.3864 378.257C49.1449 378.135 48.8636 378.074 48.5426 378.074C48.2159 378.074 47.9304 378.135 47.6861 378.257C47.4418 378.376 47.2528 378.547 47.1193 378.768C46.9858 378.987 46.9205 379.244 46.9233 379.54C46.9205 379.841 46.9872 380.104 47.1236 380.328C47.2628 380.553 47.4545 380.727 47.6989 380.852C47.9432 380.977 48.2244 381.04 48.5426 381.04Z" fill="white"/>
<path d="M145.903 299V298.233L148.784 295.08C149.122 294.71 149.401 294.389 149.619 294.116C149.838 293.841 150 293.582 150.105 293.341C150.213 293.097 150.267 292.841 150.267 292.574C150.267 292.267 150.193 292.001 150.045 291.777C149.901 291.553 149.702 291.379 149.449 291.257C149.196 291.135 148.912 291.074 148.597 291.074C148.261 291.074 147.969 291.143 147.719 291.283C147.472 291.419 147.28 291.611 147.143 291.858C147.01 292.105 146.943 292.395 146.943 292.727H145.938C145.938 292.216 146.055 291.767 146.291 291.381C146.527 290.994 146.848 290.693 147.254 290.477C147.663 290.261 148.122 290.153 148.631 290.153C149.142 290.153 149.595 290.261 149.99 290.477C150.385 290.693 150.695 290.984 150.919 291.351C151.143 291.717 151.256 292.125 151.256 292.574C151.256 292.895 151.197 293.209 151.081 293.516C150.967 293.82 150.768 294.159 150.484 294.534C150.203 294.906 149.812 295.361 149.312 295.898L147.352 297.994V298.062H151.409V299H145.903ZM156.237 290.273V299H155.18V291.381H155.129L152.999 292.795V291.722L155.18 290.273H156.237ZM161.645 299.119C161.287 299.114 160.929 299.045 160.571 298.915C160.213 298.784 159.886 298.564 159.591 298.254C159.295 297.942 159.058 297.52 158.879 296.989C158.7 296.455 158.611 295.784 158.611 294.977C158.611 294.205 158.683 293.52 158.828 292.923C158.973 292.324 159.183 291.82 159.459 291.411C159.734 290.999 160.067 290.686 160.456 290.473C160.848 290.26 161.29 290.153 161.781 290.153C162.27 290.153 162.705 290.251 163.085 290.447C163.469 290.641 163.781 290.911 164.023 291.257C164.264 291.604 164.42 292.003 164.491 292.455H163.452C163.355 292.062 163.168 291.737 162.889 291.479C162.611 291.22 162.241 291.091 161.781 291.091C161.105 291.091 160.572 291.385 160.183 291.973C159.797 292.561 159.602 293.386 159.599 294.449H159.668C159.827 294.207 160.016 294.001 160.234 293.831C160.456 293.658 160.7 293.524 160.967 293.43C161.234 293.337 161.517 293.29 161.815 293.29C162.315 293.29 162.773 293.415 163.188 293.665C163.602 293.912 163.935 294.254 164.185 294.692C164.435 295.126 164.56 295.625 164.56 296.188C164.56 296.727 164.439 297.222 164.197 297.67C163.956 298.116 163.616 298.472 163.179 298.736C162.744 298.997 162.233 299.125 161.645 299.119ZM161.645 298.182C162.003 298.182 162.324 298.092 162.608 297.913C162.895 297.734 163.121 297.494 163.286 297.193C163.453 296.892 163.537 296.557 163.537 296.188C163.537 295.827 163.456 295.499 163.294 295.203C163.135 294.905 162.915 294.668 162.634 294.491C162.355 294.315 162.037 294.227 161.679 294.227C161.409 294.227 161.158 294.281 160.925 294.389C160.692 294.494 160.487 294.639 160.311 294.824C160.138 295.009 160.001 295.22 159.902 295.459C159.803 295.695 159.753 295.943 159.753 296.205C159.753 296.551 159.834 296.875 159.996 297.176C160.161 297.477 160.385 297.72 160.669 297.905C160.956 298.089 161.281 298.182 161.645 298.182Z" fill="white"/>
<path d="M149.903 130V129.233L152.784 126.08C153.122 125.71 153.401 125.389 153.619 125.116C153.838 124.841 154 124.582 154.105 124.341C154.213 124.097 154.267 123.841 154.267 123.574C154.267 123.267 154.193 123.001 154.045 122.777C153.901 122.553 153.702 122.379 153.449 122.257C153.196 122.135 152.912 122.074 152.597 122.074C152.261 122.074 151.969 122.143 151.719 122.283C151.472 122.419 151.28 122.611 151.143 122.858C151.01 123.105 150.943 123.395 150.943 123.727H149.938C149.938 123.216 150.055 122.767 150.291 122.381C150.527 121.994 150.848 121.693 151.254 121.477C151.663 121.261 152.122 121.153 152.631 121.153C153.142 121.153 153.595 121.261 153.99 121.477C154.385 121.693 154.695 121.984 154.919 122.351C155.143 122.717 155.256 123.125 155.256 123.574C155.256 123.895 155.197 124.209 155.081 124.516C154.967 124.82 154.768 125.159 154.484 125.534C154.203 125.906 153.812 126.361 153.312 126.898L151.352 128.994V129.062H155.409V130H149.903ZM157.169 130V129.233L160.05 126.08C160.388 125.71 160.666 125.389 160.885 125.116C161.104 124.841 161.266 124.582 161.371 124.341C161.479 124.097 161.533 123.841 161.533 123.574C161.533 123.267 161.459 123.001 161.311 122.777C161.166 122.553 160.967 122.379 160.714 122.257C160.462 122.135 160.178 122.074 159.862 122.074C159.527 122.074 159.234 122.143 158.984 122.283C158.737 122.419 158.545 122.611 158.409 122.858C158.276 123.105 158.209 123.395 158.209 123.727H157.203C157.203 123.216 157.321 122.767 157.557 122.381C157.793 121.994 158.114 121.693 158.52 121.477C158.929 121.261 159.388 121.153 159.896 121.153C160.408 121.153 160.861 121.261 161.256 121.477C161.651 121.693 161.96 121.984 162.185 122.351C162.409 122.717 162.521 123.125 162.521 123.574C162.521 123.895 162.463 124.209 162.347 124.516C162.233 124.82 162.034 125.159 161.75 125.534C161.469 125.906 161.078 126.361 160.578 126.898L158.618 128.994V129.062H162.675V130H157.169ZM164.043 128.21V127.341L167.878 121.273H168.509V122.619H168.082L165.185 127.205V127.273H170.349V128.21H164.043ZM168.151 130V127.946V127.541V121.273H169.156V130H168.151Z" fill="white"/>
<path d="M931.903 186V185.233L934.784 182.08C935.122 181.71 935.401 181.389 935.619 181.116C935.838 180.841 936 180.582 936.105 180.341C936.213 180.097 936.267 179.841 936.267 179.574C936.267 179.267 936.193 179.001 936.045 178.777C935.901 178.553 935.702 178.379 935.449 178.257C935.196 178.135 934.912 178.074 934.597 178.074C934.261 178.074 933.969 178.143 933.719 178.283C933.472 178.419 933.28 178.611 933.143 178.858C933.01 179.105 932.943 179.395 932.943 179.727H931.938C931.938 179.216 932.055 178.767 932.291 178.381C932.527 177.994 932.848 177.693 933.254 177.477C933.663 177.261 934.122 177.153 934.631 177.153C935.142 177.153 935.595 177.261 935.99 177.477C936.385 177.693 936.695 177.984 936.919 178.351C937.143 178.717 937.256 179.125 937.256 179.574C937.256 179.895 937.197 180.209 937.081 180.516C936.967 180.82 936.768 181.159 936.484 181.534C936.203 181.906 935.812 182.361 935.312 182.898L933.352 184.994V185.062H937.409V186H931.903ZM942.016 186.119C941.374 186.119 940.827 185.945 940.375 185.595C939.923 185.243 939.578 184.733 939.339 184.065C939.101 183.395 938.982 182.585 938.982 181.636C938.982 180.693 939.101 179.888 939.339 179.22C939.581 178.55 939.928 178.038 940.379 177.686C940.834 177.331 941.379 177.153 942.016 177.153C942.652 177.153 943.196 177.331 943.648 177.686C944.102 178.038 944.449 178.55 944.688 179.22C944.929 179.888 945.05 180.693 945.05 181.636C945.05 182.585 944.93 183.395 944.692 184.065C944.453 184.733 944.108 185.243 943.656 185.595C943.205 185.945 942.658 186.119 942.016 186.119ZM942.016 185.182C942.652 185.182 943.146 184.875 943.499 184.261C943.851 183.648 944.027 182.773 944.027 181.636C944.027 180.881 943.946 180.237 943.784 179.706C943.625 179.175 943.395 178.77 943.094 178.491C942.795 178.213 942.436 178.074 942.016 178.074C941.385 178.074 940.892 178.385 940.537 179.007C940.182 179.626 940.004 180.503 940.004 181.636C940.004 182.392 940.084 183.034 940.243 183.562C940.402 184.091 940.631 184.493 940.929 184.768C941.23 185.044 941.592 185.182 942.016 185.182ZM949.396 186.119C948.896 186.119 948.446 186.02 948.045 185.821C947.645 185.622 947.324 185.349 947.082 185.003C946.841 184.656 946.709 184.261 946.686 183.818H947.709C947.749 184.213 947.928 184.54 948.246 184.798C948.567 185.054 948.95 185.182 949.396 185.182C949.754 185.182 950.072 185.098 950.351 184.93C950.632 184.763 950.852 184.533 951.011 184.24C951.173 183.945 951.254 183.611 951.254 183.239C951.254 182.858 951.17 182.518 951.003 182.22C950.838 181.919 950.611 181.682 950.321 181.509C950.031 181.335 949.7 181.247 949.328 181.244C949.061 181.241 948.787 181.283 948.506 181.368C948.224 181.45 947.993 181.557 947.811 181.688L946.822 181.568L947.351 177.273H951.885V178.21H948.237L947.93 180.784H947.982C948.161 180.642 948.385 180.524 948.655 180.43C948.925 180.337 949.206 180.29 949.499 180.29C950.033 180.29 950.509 180.418 950.926 180.673C951.347 180.926 951.676 181.273 951.915 181.713C952.156 182.153 952.277 182.656 952.277 183.222C952.277 183.778 952.152 184.276 951.902 184.713C951.655 185.148 951.314 185.491 950.879 185.744C950.445 185.994 949.95 186.119 949.396 186.119Z" fill="white"/>
<path d="M825.903 186V185.233L828.784 182.08C829.122 181.71 829.401 181.389 829.619 181.116C829.838 180.841 830 180.582 830.105 180.341C830.213 180.097 830.267 179.841 830.267 179.574C830.267 179.267 830.193 179.001 830.045 178.777C829.901 178.553 829.702 178.379 829.449 178.257C829.196 178.135 828.912 178.074 828.597 178.074C828.261 178.074 827.969 178.143 827.719 178.283C827.472 178.419 827.28 178.611 827.143 178.858C827.01 179.105 826.943 179.395 826.943 179.727H825.938C825.938 179.216 826.055 178.767 826.291 178.381C826.527 177.994 826.848 177.693 827.254 177.477C827.663 177.261 828.122 177.153 828.631 177.153C829.142 177.153 829.595 177.261 829.99 177.477C830.385 177.693 830.695 177.984 830.919 178.351C831.143 178.717 831.256 179.125 831.256 179.574C831.256 179.895 831.197 180.209 831.081 180.516C830.967 180.82 830.768 181.159 830.484 181.534C830.203 181.906 829.812 182.361 829.312 182.898L827.352 184.994V185.062H831.409V186H825.903ZM836.016 186.119C835.374 186.119 834.827 185.945 834.375 185.595C833.923 185.243 833.578 184.733 833.339 184.065C833.101 183.395 832.982 182.585 832.982 181.636C832.982 180.693 833.101 179.888 833.339 179.22C833.581 178.55 833.928 178.038 834.379 177.686C834.834 177.331 835.379 177.153 836.016 177.153C836.652 177.153 837.196 177.331 837.648 177.686C838.102 178.038 838.449 178.55 838.688 179.22C838.929 179.888 839.05 180.693 839.05 181.636C839.05 182.585 838.93 183.395 838.692 184.065C838.453 184.733 838.108 185.243 837.656 185.595C837.205 185.945 836.658 186.119 836.016 186.119ZM836.016 185.182C836.652 185.182 837.146 184.875 837.499 184.261C837.851 183.648 838.027 182.773 838.027 181.636C838.027 180.881 837.946 180.237 837.784 179.706C837.625 179.175 837.395 178.77 837.094 178.491C836.795 178.213 836.436 178.074 836.016 178.074C835.385 178.074 834.892 178.385 834.537 179.007C834.182 179.626 834.004 180.503 834.004 181.636C834.004 182.392 834.084 183.034 834.243 183.562C834.402 184.091 834.631 184.493 834.929 184.768C835.23 185.044 835.592 185.182 836.016 185.182ZM840.464 184.21V183.341L844.3 177.273H844.93V178.619H844.504L841.607 183.205V183.273H846.771V184.21H840.464ZM844.572 186V183.946V183.541V177.273H845.578V186H844.572Z" fill="white"/>
<path d="M594.903 268V267.233L597.784 264.08C598.122 263.71 598.401 263.389 598.619 263.116C598.838 262.841 599 262.582 599.105 262.341C599.213 262.097 599.267 261.841 599.267 261.574C599.267 261.267 599.193 261.001 599.045 260.777C598.901 260.553 598.702 260.379 598.449 260.257C598.196 260.135 597.912 260.074 597.597 260.074C597.261 260.074 596.969 260.143 596.719 260.283C596.472 260.419 596.28 260.611 596.143 260.858C596.01 261.105 595.943 261.395 595.943 261.727H594.938C594.938 261.216 595.055 260.767 595.291 260.381C595.527 259.994 595.848 259.693 596.254 259.477C596.663 259.261 597.122 259.153 597.631 259.153C598.142 259.153 598.595 259.261 598.99 259.477C599.385 259.693 599.695 259.984 599.919 260.351C600.143 260.717 600.256 261.125 600.256 261.574C600.256 261.895 600.197 262.209 600.081 262.516C599.967 262.82 599.768 263.159 599.484 263.534C599.203 263.906 598.812 264.361 598.312 264.898L596.352 266.994V267.062H600.409V268H594.903ZM605.237 259.273V268H604.18V260.381H604.129L601.999 261.795V260.722L604.18 259.273H605.237ZM610.696 268.119C610.134 268.119 609.632 268.023 609.192 267.83C608.754 267.636 608.406 267.368 608.148 267.024C607.892 266.678 607.753 266.276 607.73 265.818H608.804C608.827 266.099 608.923 266.342 609.094 266.547C609.264 266.749 609.487 266.905 609.763 267.016C610.038 267.126 610.344 267.182 610.679 267.182C611.054 267.182 611.386 267.116 611.676 266.986C611.966 266.855 612.193 266.673 612.358 266.44C612.523 266.207 612.605 265.938 612.605 265.631C612.605 265.31 612.526 265.027 612.366 264.783C612.207 264.536 611.974 264.342 611.668 264.203C611.361 264.064 610.986 263.994 610.543 263.994H609.844V263.057H610.543C610.889 263.057 611.193 262.994 611.455 262.869C611.719 262.744 611.925 262.568 612.072 262.341C612.223 262.114 612.298 261.847 612.298 261.54C612.298 261.244 612.233 260.987 612.102 260.768C611.972 260.55 611.787 260.379 611.548 260.257C611.313 260.135 611.034 260.074 610.713 260.074C610.412 260.074 610.128 260.129 609.861 260.24C609.597 260.348 609.381 260.506 609.213 260.713C609.045 260.918 608.955 261.165 608.94 261.455H607.918C607.935 260.997 608.072 260.597 608.331 260.253C608.589 259.906 608.928 259.636 609.345 259.443C609.766 259.25 610.227 259.153 610.73 259.153C611.27 259.153 611.733 259.263 612.119 259.482C612.506 259.697 612.803 259.983 613.01 260.338C613.217 260.693 613.321 261.077 613.321 261.489C613.321 261.98 613.192 262.399 612.933 262.746C612.678 263.092 612.33 263.332 611.889 263.466V263.534C612.44 263.625 612.871 263.859 613.18 264.237C613.49 264.612 613.645 265.077 613.645 265.631C613.645 266.105 613.516 266.531 613.257 266.909C613.001 267.284 612.652 267.58 612.209 267.795C611.766 268.011 611.261 268.119 610.696 268.119Z" fill="white"/>
<path d="M432.903 258V257.233L435.784 254.08C436.122 253.71 436.401 253.389 436.619 253.116C436.838 252.841 437 252.582 437.105 252.341C437.213 252.097 437.267 251.841 437.267 251.574C437.267 251.267 437.193 251.001 437.045 250.777C436.901 250.553 436.702 250.379 436.449 250.257C436.196 250.135 435.912 250.074 435.597 250.074C435.261 250.074 434.969 250.143 434.719 250.283C434.472 250.419 434.28 250.611 434.143 250.858C434.01 251.105 433.943 251.395 433.943 251.727H432.938C432.938 251.216 433.055 250.767 433.291 250.381C433.527 249.994 433.848 249.693 434.254 249.477C434.663 249.261 435.122 249.153 435.631 249.153C436.142 249.153 436.595 249.261 436.99 249.477C437.385 249.693 437.695 249.984 437.919 250.351C438.143 250.717 438.256 251.125 438.256 251.574C438.256 251.895 438.197 252.209 438.081 252.516C437.967 252.82 437.768 253.159 437.484 253.534C437.203 253.906 436.812 254.361 436.312 254.898L434.352 256.994V257.062H438.409V258H432.903ZM443.237 249.273V258H442.18V250.381H442.129L439.999 251.795V250.722L442.18 249.273H443.237ZM445.543 256.21V255.341L449.378 249.273H450.009V250.619H449.582L446.685 255.205V255.273H451.849V256.21H445.543ZM449.651 258V255.946V255.541V249.273H450.656V258H449.651Z" fill="white"/>
<path d="M700.903 186V185.233L703.784 182.08C704.122 181.71 704.401 181.389 704.619 181.116C704.838 180.841 705 180.582 705.105 180.341C705.213 180.097 705.267 179.841 705.267 179.574C705.267 179.267 705.193 179.001 705.045 178.777C704.901 178.553 704.702 178.379 704.449 178.257C704.196 178.135 703.912 178.074 703.597 178.074C703.261 178.074 702.969 178.143 702.719 178.283C702.472 178.419 702.28 178.611 702.143 178.858C702.01 179.105 701.943 179.395 701.943 179.727H700.938C700.938 179.216 701.055 178.767 701.291 178.381C701.527 177.994 701.848 177.693 702.254 177.477C702.663 177.261 703.122 177.153 703.631 177.153C704.142 177.153 704.595 177.261 704.99 177.477C705.385 177.693 705.695 177.984 705.919 178.351C706.143 178.717 706.256 179.125 706.256 179.574C706.256 179.895 706.197 180.209 706.081 180.516C705.967 180.82 705.768 181.159 705.484 181.534C705.203 181.906 704.812 182.361 704.312 182.898L702.352 184.994V185.062H706.409V186H700.903ZM711.016 186.119C710.374 186.119 709.827 185.945 709.375 185.595C708.923 185.243 708.578 184.733 708.339 184.065C708.101 183.395 707.982 182.585 707.982 181.636C707.982 180.693 708.101 179.888 708.339 179.22C708.581 178.55 708.928 178.038 709.379 177.686C709.834 177.331 710.379 177.153 711.016 177.153C711.652 177.153 712.196 177.331 712.648 177.686C713.102 178.038 713.449 178.55 713.688 179.22C713.929 179.888 714.05 180.693 714.05 181.636C714.05 182.585 713.93 183.395 713.692 184.065C713.453 184.733 713.108 185.243 712.656 185.595C712.205 185.945 711.658 186.119 711.016 186.119ZM711.016 185.182C711.652 185.182 712.146 184.875 712.499 184.261C712.851 183.648 713.027 182.773 713.027 181.636C713.027 180.881 712.946 180.237 712.784 179.706C712.625 179.175 712.395 178.77 712.094 178.491C711.795 178.213 711.436 178.074 711.016 178.074C710.385 178.074 709.892 178.385 709.537 179.007C709.182 179.626 709.004 180.503 709.004 181.636C709.004 182.392 709.084 183.034 709.243 183.562C709.402 184.091 709.631 184.493 709.929 184.768C710.23 185.044 710.592 185.182 711.016 185.182ZM718.618 186.119C718.055 186.119 717.554 186.023 717.114 185.83C716.676 185.636 716.328 185.368 716.07 185.024C715.814 184.678 715.675 184.276 715.652 183.818H716.726C716.749 184.099 716.845 184.342 717.016 184.547C717.186 184.749 717.409 184.905 717.685 185.016C717.96 185.126 718.266 185.182 718.601 185.182C718.976 185.182 719.308 185.116 719.598 184.986C719.888 184.855 720.115 184.673 720.28 184.44C720.445 184.207 720.527 183.938 720.527 183.631C720.527 183.31 720.447 183.027 720.288 182.783C720.129 182.536 719.896 182.342 719.589 182.203C719.283 182.064 718.908 181.994 718.464 181.994H717.766V181.057H718.464C718.811 181.057 719.115 180.994 719.376 180.869C719.641 180.744 719.847 180.568 719.994 180.341C720.145 180.114 720.22 179.847 720.22 179.54C720.22 179.244 720.155 178.987 720.024 178.768C719.893 178.55 719.709 178.379 719.47 178.257C719.234 178.135 718.956 178.074 718.635 178.074C718.334 178.074 718.05 178.129 717.783 178.24C717.518 178.348 717.303 178.506 717.135 178.713C716.967 178.918 716.876 179.165 716.862 179.455H715.839C715.857 178.997 715.994 178.597 716.253 178.253C716.511 177.906 716.849 177.636 717.267 177.443C717.688 177.25 718.149 177.153 718.652 177.153C719.192 177.153 719.655 177.263 720.041 177.482C720.428 177.697 720.724 177.983 720.932 178.338C721.139 178.693 721.243 179.077 721.243 179.489C721.243 179.98 721.114 180.399 720.855 180.746C720.599 181.092 720.251 181.332 719.811 181.466V181.534C720.362 181.625 720.793 181.859 721.102 182.237C721.412 182.612 721.567 183.077 721.567 183.631C721.567 184.105 721.438 184.531 721.179 184.909C720.923 185.284 720.574 185.58 720.131 185.795C719.688 186.011 719.183 186.119 718.618 186.119Z" fill="white"/>
<path d="M594.903 186V185.233L597.784 182.08C598.122 181.71 598.401 181.389 598.619 181.116C598.838 180.841 599 180.582 599.105 180.341C599.213 180.097 599.267 179.841 599.267 179.574C599.267 179.267 599.193 179.001 599.045 178.777C598.901 178.553 598.702 178.379 598.449 178.257C598.196 178.135 597.912 178.074 597.597 178.074C597.261 178.074 596.969 178.143 596.719 178.283C596.472 178.419 596.28 178.611 596.143 178.858C596.01 179.105 595.943 179.395 595.943 179.727H594.938C594.938 179.216 595.055 178.767 595.291 178.381C595.527 177.994 595.848 177.693 596.254 177.477C596.663 177.261 597.122 177.153 597.631 177.153C598.142 177.153 598.595 177.261 598.99 177.477C599.385 177.693 599.695 177.984 599.919 178.351C600.143 178.717 600.256 179.125 600.256 179.574C600.256 179.895 600.197 180.209 600.081 180.516C599.967 180.82 599.768 181.159 599.484 181.534C599.203 181.906 598.812 182.361 598.312 182.898L596.352 184.994V185.062H600.409V186H594.903ZM605.016 186.119C604.374 186.119 603.827 185.945 603.375 185.595C602.923 185.243 602.578 184.733 602.339 184.065C602.101 183.395 601.982 182.585 601.982 181.636C601.982 180.693 602.101 179.888 602.339 179.22C602.581 178.55 602.928 178.038 603.379 177.686C603.834 177.331 604.379 177.153 605.016 177.153C605.652 177.153 606.196 177.331 606.648 177.686C607.102 178.038 607.449 178.55 607.688 179.22C607.929 179.888 608.05 180.693 608.05 181.636C608.05 182.585 607.93 183.395 607.692 184.065C607.453 184.733 607.108 185.243 606.656 185.595C606.205 185.945 605.658 186.119 605.016 186.119ZM605.016 185.182C605.652 185.182 606.146 184.875 606.499 184.261C606.851 183.648 607.027 182.773 607.027 181.636C607.027 180.881 606.946 180.237 606.784 179.706C606.625 179.175 606.395 178.77 606.094 178.491C605.795 178.213 605.436 178.074 605.016 178.074C604.385 178.074 603.892 178.385 603.537 179.007C603.182 179.626 603.004 180.503 603.004 181.636C603.004 182.392 603.084 183.034 603.243 183.562C603.402 184.091 603.631 184.493 603.929 184.768C604.23 185.044 604.592 185.182 605.016 185.182ZM609.669 186V185.233L612.55 182.08C612.888 181.71 613.166 181.389 613.385 181.116C613.604 180.841 613.766 180.582 613.871 180.341C613.979 180.097 614.033 179.841 614.033 179.574C614.033 179.267 613.959 179.001 613.811 178.777C613.666 178.553 613.467 178.379 613.214 178.257C612.962 178.135 612.678 178.074 612.362 178.074C612.027 178.074 611.734 178.143 611.484 178.283C611.237 178.419 611.045 178.611 610.909 178.858C610.776 179.105 610.709 179.395 610.709 179.727H609.703C609.703 179.216 609.821 178.767 610.057 178.381C610.293 177.994 610.614 177.693 611.02 177.477C611.429 177.261 611.888 177.153 612.396 177.153C612.908 177.153 613.361 177.261 613.756 177.477C614.151 177.693 614.46 177.984 614.685 178.351C614.909 178.717 615.021 179.125 615.021 179.574C615.021 179.895 614.963 180.209 614.847 180.516C614.733 180.82 614.534 181.159 614.25 181.534C613.969 181.906 613.578 182.361 613.078 182.898L611.118 184.994V185.062H615.175V186H609.669Z" fill="white"/>
<path d="M485.903 186V185.233L488.784 182.08C489.122 181.71 489.401 181.389 489.619 181.116C489.838 180.841 490 180.582 490.105 180.341C490.213 180.097 490.267 179.841 490.267 179.574C490.267 179.267 490.193 179.001 490.045 178.777C489.901 178.553 489.702 178.379 489.449 178.257C489.196 178.135 488.912 178.074 488.597 178.074C488.261 178.074 487.969 178.143 487.719 178.283C487.472 178.419 487.28 178.611 487.143 178.858C487.01 179.105 486.943 179.395 486.943 179.727H485.938C485.938 179.216 486.055 178.767 486.291 178.381C486.527 177.994 486.848 177.693 487.254 177.477C487.663 177.261 488.122 177.153 488.631 177.153C489.142 177.153 489.595 177.261 489.99 177.477C490.385 177.693 490.695 177.984 490.919 178.351C491.143 178.717 491.256 179.125 491.256 179.574C491.256 179.895 491.197 180.209 491.081 180.516C490.967 180.82 490.768 181.159 490.484 181.534C490.203 181.906 489.812 182.361 489.312 182.898L487.352 184.994V185.062H491.409V186H485.903ZM496.016 186.119C495.374 186.119 494.827 185.945 494.375 185.595C493.923 185.243 493.578 184.733 493.339 184.065C493.101 183.395 492.982 182.585 492.982 181.636C492.982 180.693 493.101 179.888 493.339 179.22C493.581 178.55 493.928 178.038 494.379 177.686C494.834 177.331 495.379 177.153 496.016 177.153C496.652 177.153 497.196 177.331 497.648 177.686C498.102 178.038 498.449 178.55 498.688 179.22C498.929 179.888 499.05 180.693 499.05 181.636C499.05 182.585 498.93 183.395 498.692 184.065C498.453 184.733 498.108 185.243 497.656 185.595C497.205 185.945 496.658 186.119 496.016 186.119ZM496.016 185.182C496.652 185.182 497.146 184.875 497.499 184.261C497.851 183.648 498.027 182.773 498.027 181.636C498.027 180.881 497.946 180.237 497.784 179.706C497.625 179.175 497.395 178.77 497.094 178.491C496.795 178.213 496.436 178.074 496.016 178.074C495.385 178.074 494.892 178.385 494.537 179.007C494.182 179.626 494.004 180.503 494.004 181.636C494.004 182.392 494.084 183.034 494.243 183.562C494.402 184.091 494.631 184.493 494.929 184.768C495.23 185.044 495.592 185.182 496.016 185.182ZM503.737 177.273V186H502.68V178.381H502.629L500.499 179.795V178.722L502.68 177.273H503.737Z" fill="white"/>
<path d="M374.903 186V185.233L377.784 182.08C378.122 181.71 378.401 181.389 378.619 181.116C378.838 180.841 379 180.582 379.105 180.341C379.213 180.097 379.267 179.841 379.267 179.574C379.267 179.267 379.193 179.001 379.045 178.777C378.901 178.553 378.702 178.379 378.449 178.257C378.196 178.135 377.912 178.074 377.597 178.074C377.261 178.074 376.969 178.143 376.719 178.283C376.472 178.419 376.28 178.611 376.143 178.858C376.01 179.105 375.943 179.395 375.943 179.727H374.938C374.938 179.216 375.055 178.767 375.291 178.381C375.527 177.994 375.848 177.693 376.254 177.477C376.663 177.261 377.122 177.153 377.631 177.153C378.142 177.153 378.595 177.261 378.99 177.477C379.385 177.693 379.695 177.984 379.919 178.351C380.143 178.717 380.256 179.125 380.256 179.574C380.256 179.895 380.197 180.209 380.081 180.516C379.967 180.82 379.768 181.159 379.484 181.534C379.203 181.906 378.812 182.361 378.312 182.898L376.352 184.994V185.062H380.409V186H374.903ZM385.016 186.119C384.374 186.119 383.827 185.945 383.375 185.595C382.923 185.243 382.578 184.733 382.339 184.065C382.101 183.395 381.982 182.585 381.982 181.636C381.982 180.693 382.101 179.888 382.339 179.22C382.581 178.55 382.928 178.038 383.379 177.686C383.834 177.331 384.379 177.153 385.016 177.153C385.652 177.153 386.196 177.331 386.648 177.686C387.102 178.038 387.449 178.55 387.688 179.22C387.929 179.888 388.05 180.693 388.05 181.636C388.05 182.585 387.93 183.395 387.692 184.065C387.453 184.733 387.108 185.243 386.656 185.595C386.205 185.945 385.658 186.119 385.016 186.119ZM385.016 185.182C385.652 185.182 386.146 184.875 386.499 184.261C386.851 183.648 387.027 182.773 387.027 181.636C387.027 180.881 386.946 180.237 386.784 179.706C386.625 179.175 386.395 178.77 386.094 178.491C385.795 178.213 385.436 178.074 385.016 178.074C384.385 178.074 383.892 178.385 383.537 179.007C383.182 179.626 383.004 180.503 383.004 181.636C383.004 182.392 383.084 183.034 383.243 183.562C383.402 184.091 383.631 184.493 383.929 184.768C384.23 185.044 384.592 185.182 385.016 185.182ZM392.516 186.119C391.874 186.119 391.327 185.945 390.875 185.595C390.423 185.243 390.078 184.733 389.839 184.065C389.601 183.395 389.482 182.585 389.482 181.636C389.482 180.693 389.601 179.888 389.839 179.22C390.081 178.55 390.428 178.038 390.879 177.686C391.334 177.331 391.879 177.153 392.516 177.153C393.152 177.153 393.696 177.331 394.148 177.686C394.602 178.038 394.949 178.55 395.188 179.22C395.429 179.888 395.55 180.693 395.55 181.636C395.55 182.585 395.43 183.395 395.192 184.065C394.953 184.733 394.608 185.243 394.156 185.595C393.705 185.945 393.158 186.119 392.516 186.119ZM392.516 185.182C393.152 185.182 393.646 184.875 393.999 184.261C394.351 183.648 394.527 182.773 394.527 181.636C394.527 180.881 394.446 180.237 394.284 179.706C394.125 179.175 393.895 178.77 393.594 178.491C393.295 178.213 392.936 178.074 392.516 178.074C391.885 178.074 391.392 178.385 391.037 179.007C390.682 179.626 390.504 180.503 390.504 181.636C390.504 182.392 390.584 183.034 390.743 183.562C390.902 184.091 391.131 184.493 391.429 184.768C391.73 185.044 392.092 185.182 392.516 185.182Z" fill="white"/>
<path d="M930.903 255V254.233L933.784 251.08C934.122 250.71 934.401 250.389 934.619 250.116C934.838 249.841 935 249.582 935.105 249.341C935.213 249.097 935.267 248.841 935.267 248.574C935.267 248.267 935.193 248.001 935.045 247.777C934.901 247.553 934.702 247.379 934.449 247.257C934.196 247.135 933.912 247.074 933.597 247.074C933.261 247.074 932.969 247.143 932.719 247.283C932.472 247.419 932.28 247.611 932.143 247.858C932.01 248.105 931.943 248.395 931.943 248.727H930.938C930.938 248.216 931.055 247.767 931.291 247.381C931.527 246.994 931.848 246.693 932.254 246.477C932.663 246.261 933.122 246.153 933.631 246.153C934.142 246.153 934.595 246.261 934.99 246.477C935.385 246.693 935.695 246.984 935.919 247.351C936.143 247.717 936.256 248.125 936.256 248.574C936.256 248.895 936.197 249.209 936.081 249.516C935.967 249.82 935.768 250.159 935.484 250.534C935.203 250.906 934.812 251.361 934.312 251.898L932.352 253.994V254.062H936.409V255H930.903ZM941.016 255.119C940.374 255.119 939.827 254.945 939.375 254.595C938.923 254.243 938.578 253.733 938.339 253.065C938.101 252.395 937.982 251.585 937.982 250.636C937.982 249.693 938.101 248.888 938.339 248.22C938.581 247.55 938.928 247.038 939.379 246.686C939.834 246.331 940.379 246.153 941.016 246.153C941.652 246.153 942.196 246.331 942.648 246.686C943.102 247.038 943.449 247.55 943.688 248.22C943.929 248.888 944.05 249.693 944.05 250.636C944.05 251.585 943.93 252.395 943.692 253.065C943.453 253.733 943.108 254.243 942.656 254.595C942.205 254.945 941.658 255.119 941.016 255.119ZM941.016 254.182C941.652 254.182 942.146 253.875 942.499 253.261C942.851 252.648 943.027 251.773 943.027 250.636C943.027 249.881 942.946 249.237 942.784 248.706C942.625 248.175 942.395 247.77 942.094 247.491C941.795 247.213 941.436 247.074 941.016 247.074C940.385 247.074 939.892 247.385 939.537 248.007C939.182 248.626 939.004 249.503 939.004 250.636C939.004 251.392 939.084 252.034 939.243 252.562C939.402 253.091 939.631 253.493 939.929 253.768C940.23 254.044 940.592 254.182 941.016 254.182ZM948.567 255.119C948.209 255.114 947.851 255.045 947.493 254.915C947.135 254.784 946.808 254.564 946.513 254.254C946.217 253.942 945.98 253.52 945.801 252.989C945.622 252.455 945.533 251.784 945.533 250.977C945.533 250.205 945.605 249.52 945.75 248.923C945.895 248.324 946.105 247.82 946.381 247.411C946.656 246.999 946.989 246.686 947.378 246.473C947.77 246.26 948.212 246.153 948.703 246.153C949.192 246.153 949.626 246.251 950.007 246.447C950.391 246.641 950.703 246.911 950.945 247.257C951.186 247.604 951.342 248.003 951.413 248.455H950.374C950.277 248.062 950.089 247.737 949.811 247.479C949.533 247.22 949.163 247.091 948.703 247.091C948.027 247.091 947.494 247.385 947.105 247.973C946.719 248.561 946.524 249.386 946.521 250.449H946.589C946.749 250.207 946.938 250.001 947.156 249.831C947.378 249.658 947.622 249.524 947.889 249.43C948.156 249.337 948.439 249.29 948.737 249.29C949.237 249.29 949.695 249.415 950.109 249.665C950.524 249.912 950.857 250.254 951.107 250.692C951.357 251.126 951.482 251.625 951.482 252.188C951.482 252.727 951.361 253.222 951.119 253.67C950.878 254.116 950.538 254.472 950.101 254.736C949.666 254.997 949.155 255.125 948.567 255.119ZM948.567 254.182C948.925 254.182 949.246 254.092 949.53 253.913C949.817 253.734 950.043 253.494 950.207 253.193C950.375 252.892 950.459 252.557 950.459 252.188C950.459 251.827 950.378 251.499 950.216 251.203C950.057 250.905 949.837 250.668 949.555 250.491C949.277 250.315 948.959 250.227 948.601 250.227C948.331 250.227 948.08 250.281 947.847 250.389C947.614 250.494 947.409 250.639 947.233 250.824C947.06 251.009 946.923 251.22 946.824 251.459C946.724 251.695 946.675 251.943 946.675 252.205C946.675 252.551 946.756 252.875 946.918 253.176C947.082 253.477 947.307 253.72 947.591 253.905C947.878 254.089 948.203 254.182 948.567 254.182Z" fill="white"/>
<rect x="933" y="267" width="15" height="5" fill="#D9D9D9"/>
<rect x="943" y="262" width="15" height="5" transform="rotate(89.926 943 262)" fill="#D9D9D9"/>
<path d="M406.585 265.273V274H405.528V266.21H401.131V274H400.074V265.273H406.585ZM408.581 276.455V267.455H409.552V268.494H409.672C409.745 268.381 409.848 268.236 409.978 268.06C410.112 267.881 410.302 267.722 410.549 267.582C410.799 267.44 411.137 267.369 411.564 267.369C412.115 267.369 412.6 267.507 413.021 267.783C413.441 268.058 413.77 268.449 414.005 268.955C414.241 269.46 414.359 270.057 414.359 270.744C414.359 271.438 414.241 272.038 414.005 272.547C413.77 273.053 413.443 273.445 413.025 273.723C412.608 273.999 412.126 274.136 411.581 274.136C411.16 274.136 410.824 274.067 410.571 273.928C410.318 273.786 410.123 273.625 409.987 273.446C409.85 273.264 409.745 273.114 409.672 272.994H409.586V276.455H408.581ZM409.569 270.727C409.569 271.222 409.642 271.658 409.787 272.036C409.931 272.411 410.143 272.705 410.422 272.918C410.7 273.128 411.041 273.233 411.444 273.233C411.865 273.233 412.216 273.122 412.497 272.901C412.781 272.676 412.994 272.375 413.136 271.997C413.281 271.616 413.353 271.193 413.353 270.727C413.353 270.267 413.282 269.852 413.14 269.483C413.001 269.111 412.789 268.817 412.505 268.601C412.224 268.382 411.87 268.273 411.444 268.273C411.035 268.273 410.691 268.376 410.413 268.584C410.135 268.788 409.924 269.075 409.782 269.445C409.64 269.811 409.569 270.239 409.569 270.727ZM418.637 274.136C418.007 274.136 417.463 273.997 417.005 273.719C416.551 273.438 416.2 273.045 415.953 272.543C415.708 272.037 415.586 271.449 415.586 270.778C415.586 270.108 415.708 269.517 415.953 269.006C416.2 268.491 416.544 268.091 416.984 267.804C417.427 267.514 417.944 267.369 418.535 267.369C418.876 267.369 419.213 267.426 419.545 267.54C419.877 267.653 420.18 267.838 420.453 268.094C420.725 268.347 420.943 268.682 421.105 269.099C421.267 269.517 421.348 270.031 421.348 270.642V271.068H416.302V270.199H420.325C420.325 269.83 420.251 269.5 420.103 269.21C419.958 268.92 419.751 268.692 419.481 268.524C419.214 268.357 418.899 268.273 418.535 268.273C418.135 268.273 417.788 268.372 417.495 268.571C417.206 268.767 416.983 269.023 416.826 269.338C416.67 269.653 416.592 269.991 416.592 270.352V270.932C416.592 271.426 416.677 271.845 416.848 272.189C417.021 272.53 417.261 272.79 417.568 272.969C417.875 273.145 418.231 273.233 418.637 273.233C418.902 273.233 419.14 273.196 419.353 273.122C419.569 273.045 419.755 272.932 419.912 272.781C420.068 272.628 420.189 272.437 420.274 272.21L421.245 272.483C421.143 272.812 420.971 273.102 420.73 273.352C420.488 273.599 420.19 273.793 419.835 273.932C419.48 274.068 419.081 274.136 418.637 274.136ZM422.877 274V267.455H428.025V274H427.02V268.392H423.883V274H422.877ZM432.521 274.136C431.93 274.136 431.412 273.996 430.966 273.714C430.522 273.433 430.176 273.04 429.926 272.534C429.679 272.028 429.555 271.437 429.555 270.761C429.555 270.08 429.679 269.484 429.926 268.976C430.176 268.467 430.522 268.072 430.966 267.791C431.412 267.51 431.93 267.369 432.521 267.369C433.112 267.369 433.629 267.51 434.072 267.791C434.518 268.072 434.865 268.467 435.112 268.976C435.362 269.484 435.487 270.08 435.487 270.761C435.487 271.437 435.362 272.028 435.112 272.534C434.865 273.04 434.518 273.433 434.072 273.714C433.629 273.996 433.112 274.136 432.521 274.136ZM432.521 273.233C432.97 273.233 433.339 273.118 433.629 272.888C433.919 272.658 434.133 272.355 434.272 271.98C434.412 271.605 434.481 271.199 434.481 270.761C434.481 270.324 434.412 269.916 434.272 269.538C434.133 269.161 433.919 268.855 433.629 268.622C433.339 268.389 432.97 268.273 432.521 268.273C432.072 268.273 431.703 268.389 431.413 268.622C431.123 268.855 430.909 269.161 430.77 269.538C430.63 269.916 430.561 270.324 430.561 270.761C430.561 271.199 430.63 271.605 430.77 271.98C430.909 272.355 431.123 272.658 431.413 272.888C431.703 273.118 432.072 273.233 432.521 273.233ZM436.323 275.875V273.062H436.869C437.002 272.923 437.117 272.773 437.214 272.611C437.31 272.449 437.394 272.257 437.465 272.036C437.539 271.811 437.602 271.538 437.653 271.217C437.704 270.893 437.749 270.503 437.789 270.045L438.011 267.455H442.17V273.062H443.175V275.875H442.17V274H437.329V275.875H436.323ZM438.011 273.062H441.164V268.392H438.948L438.778 270.045C438.707 270.73 438.619 271.328 438.513 271.839C438.408 272.351 438.241 272.759 438.011 273.062ZM446.436 274.153C446.022 274.153 445.645 274.075 445.307 273.919C444.969 273.76 444.701 273.531 444.502 273.233C444.303 272.932 444.203 272.568 444.203 272.142C444.203 271.767 444.277 271.463 444.425 271.23C444.573 270.994 444.77 270.81 445.017 270.676C445.265 270.543 445.537 270.443 445.836 270.378C446.137 270.31 446.439 270.256 446.743 270.216C447.141 270.165 447.463 270.126 447.711 270.101C447.961 270.072 448.142 270.026 448.256 269.96C448.373 269.895 448.431 269.781 448.431 269.619V269.585C448.431 269.165 448.316 268.838 448.086 268.605C447.858 268.372 447.513 268.256 447.05 268.256C446.57 268.256 446.194 268.361 445.921 268.571C445.648 268.781 445.456 269.006 445.346 269.244L444.391 268.903C444.561 268.506 444.789 268.196 445.073 267.974C445.36 267.75 445.672 267.594 446.01 267.506C446.351 267.415 446.686 267.369 447.016 267.369C447.226 267.369 447.468 267.395 447.74 267.446C448.016 267.494 448.282 267.595 448.537 267.749C448.796 267.902 449.01 268.134 449.181 268.443C449.351 268.753 449.436 269.168 449.436 269.688V274H448.431V273.114H448.38C448.311 273.256 448.198 273.408 448.039 273.57C447.88 273.732 447.668 273.869 447.404 273.983C447.14 274.097 446.817 274.153 446.436 274.153ZM446.59 273.25C446.988 273.25 447.323 273.172 447.596 273.016C447.871 272.859 448.078 272.658 448.218 272.411C448.36 272.163 448.431 271.903 448.431 271.631V270.71C448.388 270.761 448.294 270.808 448.15 270.851C448.007 270.891 447.843 270.926 447.655 270.957C447.471 270.986 447.29 271.011 447.114 271.034C446.941 271.054 446.8 271.071 446.692 271.085C446.431 271.119 446.186 271.175 445.959 271.251C445.735 271.325 445.553 271.437 445.414 271.588C445.277 271.736 445.209 271.937 445.209 272.193C445.209 272.543 445.338 272.807 445.597 272.986C445.858 273.162 446.189 273.25 446.59 273.25ZM451.272 274V267.455H453.948C454.653 267.455 455.212 267.614 455.627 267.932C456.042 268.25 456.249 268.67 456.249 269.193C456.249 269.591 456.131 269.899 455.896 270.118C455.66 270.334 455.357 270.48 454.988 270.557C455.229 270.591 455.464 270.676 455.691 270.812C455.921 270.949 456.112 271.136 456.262 271.375C456.413 271.611 456.488 271.901 456.488 272.244C456.488 272.58 456.403 272.879 456.232 273.143C456.062 273.408 455.817 273.616 455.499 273.77C455.181 273.923 454.8 274 454.357 274H451.272ZM452.227 273.08H454.357C454.704 273.08 454.975 272.997 455.171 272.832C455.367 272.668 455.465 272.443 455.465 272.159C455.465 271.821 455.367 271.555 455.171 271.362C454.975 271.166 454.704 271.068 454.357 271.068H452.227V273.08ZM452.227 270.199H453.948C454.218 270.199 454.45 270.162 454.643 270.088C454.836 270.011 454.984 269.903 455.086 269.764C455.191 269.622 455.244 269.455 455.244 269.261C455.244 268.986 455.129 268.77 454.898 268.614C454.668 268.455 454.352 268.375 453.948 268.375H452.227V270.199ZM459.936 274.153C459.522 274.153 459.145 274.075 458.807 273.919C458.469 273.76 458.201 273.531 458.002 273.233C457.803 272.932 457.703 272.568 457.703 272.142C457.703 271.767 457.777 271.463 457.925 271.23C458.073 270.994 458.27 270.81 458.517 270.676C458.765 270.543 459.037 270.443 459.336 270.378C459.637 270.31 459.939 270.256 460.243 270.216C460.641 270.165 460.963 270.126 461.211 270.101C461.461 270.072 461.642 270.026 461.756 269.96C461.873 269.895 461.931 269.781 461.931 269.619V269.585C461.931 269.165 461.816 268.838 461.586 268.605C461.358 268.372 461.013 268.256 460.55 268.256C460.07 268.256 459.694 268.361 459.421 268.571C459.148 268.781 458.956 269.006 458.846 269.244L457.891 268.903C458.061 268.506 458.289 268.196 458.573 267.974C458.86 267.75 459.172 267.594 459.51 267.506C459.851 267.415 460.186 267.369 460.516 267.369C460.726 267.369 460.968 267.395 461.24 267.446C461.516 267.494 461.782 267.595 462.037 267.749C462.296 267.902 462.51 268.134 462.681 268.443C462.851 268.753 462.936 269.168 462.936 269.688V274H461.931V273.114H461.88C461.811 273.256 461.698 273.408 461.539 273.57C461.38 273.732 461.168 273.869 460.904 273.983C460.64 274.097 460.317 274.153 459.936 274.153ZM460.09 273.25C460.488 273.25 460.823 273.172 461.096 273.016C461.371 272.859 461.578 272.658 461.718 272.411C461.86 272.163 461.931 271.903 461.931 271.631V270.71C461.888 270.761 461.794 270.808 461.65 270.851C461.507 270.891 461.343 270.926 461.155 270.957C460.971 270.986 460.79 271.011 460.614 271.034C460.441 271.054 460.3 271.071 460.192 271.085C459.931 271.119 459.686 271.175 459.459 271.251C459.235 271.325 459.053 271.437 458.914 271.588C458.777 271.736 458.709 271.937 458.709 272.193C458.709 272.543 458.838 272.807 459.097 272.986C459.358 273.162 459.689 273.25 460.09 273.25ZM463.881 268.392V267.455H469.2V268.392H467.052V274H466.046V268.392H463.881ZM473.071 274.136C472.44 274.136 471.896 273.997 471.439 273.719C470.984 273.438 470.634 273.045 470.386 272.543C470.142 272.037 470.02 271.449 470.02 270.778C470.02 270.108 470.142 269.517 470.386 269.006C470.634 268.491 470.977 268.091 471.418 267.804C471.861 267.514 472.378 267.369 472.969 267.369C473.31 267.369 473.646 267.426 473.979 267.54C474.311 267.653 474.614 267.838 474.886 268.094C475.159 268.347 475.376 268.682 475.538 269.099C475.7 269.517 475.781 270.031 475.781 270.642V271.068H470.736V270.199H474.759C474.759 269.83 474.685 269.5 474.537 269.21C474.392 268.92 474.185 268.692 473.915 268.524C473.648 268.357 473.332 268.273 472.969 268.273C472.568 268.273 472.222 268.372 471.929 268.571C471.639 268.767 471.416 269.023 471.26 269.338C471.104 269.653 471.026 269.991 471.026 270.352V270.932C471.026 271.426 471.111 271.845 471.281 272.189C471.455 272.53 471.695 272.79 472.001 272.969C472.308 273.145 472.665 273.233 473.071 273.233C473.335 273.233 473.574 273.196 473.787 273.122C474.003 273.045 474.189 272.932 474.345 272.781C474.501 272.628 474.622 272.437 474.707 272.21L475.679 272.483C475.577 272.812 475.405 273.102 475.163 273.352C474.922 273.599 474.624 273.793 474.268 273.932C473.913 274.068 473.514 274.136 473.071 274.136ZM476.732 274V273.062H476.97C477.166 273.062 477.33 273.024 477.46 272.947C477.591 272.868 477.696 272.73 477.776 272.534C477.858 272.335 477.92 272.06 477.963 271.707C478.009 271.352 478.041 270.901 478.061 270.352L478.18 267.455H482.544V274H481.538V268.392H479.135L479.033 270.727C479.01 271.264 478.962 271.737 478.888 272.146C478.817 272.553 478.707 272.893 478.56 273.169C478.415 273.445 478.222 273.652 477.98 273.791C477.739 273.93 477.436 274 477.072 274H476.732ZM485.395 272.517L488.548 267.455H489.707V274H488.702V268.938L485.565 274H484.389V267.455H485.395V272.517Z" fill="white"/>
</svg>
